HIERARCHY
ROOT Hips
{
	OFFSET 0.000000 0.000000 0.000000
	CHANNELS 6 Xposition Yposition Zposition Zrotation Yrotation Xrotation 
	JOINT LHipJoint
	{
		OFFSET 0.000000 0.000000 0.000000
		CHANNELS 3 Zrotation Yrotation Xrotation
		JOINT LeftUpLeg
		{
			OFFSET 1.363060 -1.794630 0.839290
			CHANNELS 3 Zrotation Yrotation Xrotation
			JOINT LeftLeg
			{
				OFFSET 2.448110 -6.726130 0.000000
				CHANNELS 3 Zrotation Yrotation Xrotation
				JOINT LeftFoot
				{
					OFFSET 2.562200 -7.039590 0.000000
					CHANNELS 3 Zrotation Yrotation Xrotation
					JOINT LeftToeBase
					{
						OFFSET 0.157640 -0.433110 2.322550
						CHANNELS 3 Zrotation Yrotation Xrotation
						End Site
						{
							OFFSET 0.000000 0.000000 0.000000
						}
					}
				}
			}
		}
	}
	JOINT RHipJoint
	{
		OFFSET 0.000000 0.000000 0.000000
		CHANNELS 3 Zrotation Yrotation Xrotation
		JOINT RightUpLeg
		{
			OFFSET -1.305520 -1.794630 0.839290
			CHANNELS 3 Zrotation Yrotation Xrotation
			JOINT RightLeg
			{
				OFFSET -2.542530 -6.985550 0.000000
				CHANNELS 3 Zrotation Yrotation Xrotation
				JOINT RightFoot
				{
					OFFSET -2.568260 -7.056230 0.000000
					CHANNELS 3 Zrotation Yrotation Xrotation
					JOINT RightToeBase
					{
						OFFSET -0.164730 -0.452590 2.363150
						CHANNELS 3 Zrotation Yrotation Xrotation
						End Site
						{
							OFFSET 0.000000 0.000000 0.000000
						}
					}
				}
			}
		}
	}
	JOINT LowerBack
	{
		OFFSET 0.000000 0.000000 0.000000
		CHANNELS 3 Zrotation Yrotation Xrotation
		JOINT Spine
		{
			OFFSET 0.028270 2.035590 -0.193380
			CHANNELS 3 Zrotation Yrotation Xrotation
			JOINT Spine1
			{
				OFFSET 0.056720 2.048850 -0.042750
				CHANNELS 3 Zrotation Yrotation Xrotation
				JOINT Neck
				{
					OFFSET 0.000000 0.000000 0.000000
					CHANNELS 3 Zrotation Yrotation Xrotation
					JOINT Neck1
					{
						OFFSET -0.054170 1.746240 0.172020
						CHANNELS 3 Zrotation Yrotation Xrotation
						JOINT Head
						{
							OFFSET 0.104070 1.761360 -0.123970
							CHANNELS 3 Zrotation Yrotation Xrotation
							End Site
							{
								OFFSET 0.000000 0.000000 0.000000
							}
						}
					}
				}
				JOINT LeftShoulder
				{
					OFFSET 0.000000 0.000000 0.000000
					CHANNELS 3 Zrotation Yrotation Xrotation
					JOINT LeftArm
					{
						OFFSET 3.362410 1.200890 -0.311210
						CHANNELS 3 Zrotation Yrotation Xrotation
						JOINT LeftForeArm
						{
							OFFSET 4.983000 -0.000000 -0.000000
							CHANNELS 3 Zrotation Yrotation Xrotation
							JOINT LeftHand
							{
								OFFSET 3.483560 -0.000000 -0.000000
								CHANNELS 3 Zrotation Yrotation Xrotation
								JOINT LeftFingerBase
								{
									OFFSET 0.000000 0.000000 0.000000
									CHANNELS 3 Zrotation Yrotation Xrotation
									JOINT LeftHandIndex1
									{
										OFFSET 0.715260 -0.000000 -0.000000
										CHANNELS 3 Zrotation Yrotation Xrotation
										End Site
										{
											OFFSET 0.000000 0.000000 0.000000
										}
									}
								}
								JOINT LThumb
								{
									OFFSET 0.000000 0.000000 0.000000
									CHANNELS 3 Zrotation Yrotation Xrotation
									End Site
									{
										OFFSET 0.000000 0.000000 0.000000
									}
								}
							}
						}
					}
				}
				JOINT RightShoulder
				{
					OFFSET 0.000000 0.000000 0.000000
					CHANNELS 3 Zrotation Yrotation Xrotation
					JOINT RightArm
					{
						OFFSET -3.136600 1.374050 -0.404650
						CHANNELS 3 Zrotation Yrotation Xrotation
						JOINT RightForeArm
						{
							OFFSET -5.241900 -0.000000 -0.000000
							CHANNELS 3 Zrotation Yrotation Xrotation
							JOINT RightHand
							{
								OFFSET -3.444170 -0.000000 -0.000000
								CHANNELS 3 Zrotation Yrotation Xrotation
								JOINT RightFingerBase
								{
									OFFSET 0.000000 0.000000 0.000000
									CHANNELS 3 Zrotation Yrotation Xrotation
									JOINT RightHandIndex1
									{
										OFFSET -0.622530 -0.000000 -0.000000
										CHANNELS 3 Zrotation Yrotation Xrotation
										End Site
										{
											OFFSET 0.000000 0.000000 0.000000
										}
									}
								}
								JOINT RThumb
								{
									OFFSET 0.000000 0.000000 0.000000
									CHANNELS 3 Zrotation Yrotation Xrotation
									End Site
									{
										OFFSET 0.000000 0.000000 0.000000
									}
								}
							}
						}
					}
				}
			}
		}
	}
}
MOTION
Frames: 11
Frame Time: 0.033333
-1.734254 16.395816 23.737145 2.795738 3.200137 8.317620 -4.105097 13.393109 -2.698364 -21.697289 -4.584940 -9.231819 -14.007236 -8.360988 -22.028345 1.852616 14.166867 30.708727 0.000000 0.000000 0.000000 11.064244 -8.742609 5.661009 2.557493 5.724556 -10.925793 -2.073208 -19.608354 48.077200 13.291507 -22.053526 11.048872 0.000000 0.000000 0.000000 -4.213346 -0.451171 3.064748 6.756079 -1.496586 11.815009 -1.822034 0.028629 -16.579460 2.492754 -0.221533 -5.203592 0.154001 0.003912 0.181542 0.000000 0.000000 0.000000 -4.372390 14.947044 9.678035 -66.534992 -1.878235 21.167692 -33.675304 -60.247214 0.651351 -2.239329 -9.635701 0.325376 -2.260093 -9.645259 0.000000 0.000000 0.000000 0.000000 0.000000 0.000000 0.000000 0.048876 -18.482109 7.970678 58.611521 3.525475 14.981337 26.988516 56.965830 0.192875 0.127575 7.871866 0.095856 0.121207 7.874220 0.000000 0.000000 0.000000 0.000000 0.000000 0.000000 0.000000 
-1.745566 16.423466 23.937650 3.150379 3.060833 8.340815 -3.698372 13.590694 -2.886859 -22.659365 -4.554836 -8.768733 -13.397531 -7.913533 -20.462679 1.368244 12.483859 27.296045 0.000000 0.000000 0.000000 10.994803 -8.894438 5.990734 2.235878 5.610086 -10.847076 -2.186982 -19.424654 47.687276 13.600350 -23.668392 13.262403 0.000000 0.000000 0.000000 -4.244375 -0.442798 2.919141 6.202939 -1.520375 11.979701 -1.641665 -0.028295 -16.339994 2.569181 -0.237637 -5.248086 0.118345 0.002031 0.131943 0.000000 0.000000 0.000000 -4.178163 14.720364 9.650139 -66.626408 -1.980921 21.381009 -33.084391 -61.143777 0.655264 -2.129277 -9.908771 0.327240 -2.149413 -9.918551 0.000000 0.000000 0.000000 0.000000 0.000000 0.000000 0.000000 -0.055600 -18.286571 7.961080 58.928820 3.551652 15.234393 26.736796 57.854377 0.200944 0.117810 8.079053 0.099847 0.111148 8.081491 0.000000 0.000000 0.000000 0.000000 0.000000 0.000000 0.000000 
-1.756256 16.452932 24.135194 3.482492 2.922587 8.365916 -3.346054 13.793370 -3.083791 -23.555971 -4.540308 -8.373848 -12.751154 -7.430224 -18.818512 0.962500 10.841484 23.994702 0.000000 0.000000 0.000000 10.962923 -9.047940 6.326212 1.892819 5.476064 -10.779529 -2.297937 -19.230546 47.250489 13.836053 -25.262869 15.413486 0.000000 0.000000 0.000000 -4.282107 -0.439075 2.784011 5.700931 -1.543111 12.122530 -1.476313 -0.082638 -16.115605 2.640798 -0.252479 -5.290678 0.084739 0.000250 0.086914 0.000000 0.000000 0.000000 -3.996996 14.508132 9.625543 -66.711575 -2.076326 21.564251 -32.514777 -61.964224 0.658130 -2.020407 -10.159673 0.328577 -2.039814 -10.169639 0.000000 0.000000 0.000000 0.000000 0.000000 0.000000 0.000000 -0.155895 -18.103418 7.950992 59.223990 3.574796 15.465500 26.488171 58.674727 0.208491 0.106499 8.271347 0.103579 0.099548 8.273862 0.000000 0.000000 0.000000 0.000000 0.000000 0.000000 0.000000 
-1.765106 16.483693 24.329046 3.789685 2.785618 8.393730 -3.051080 14.001103 -3.285493 -24.378017 -4.539720 -8.048752 -12.092460 -6.914031 -17.113906 0.628259 9.267542 20.841995 0.000000 0.000000 0.000000 10.966795 -9.202329 6.666222 1.531409 5.326724 -10.724474 -2.409219 -19.027187 46.777117 13.990244 -26.814052 17.487773 0.000000 0.000000 0.000000 -4.324066 -0.440270 2.657940 5.249598 -1.565410 12.245056 -1.325558 -0.134434 -15.906855 2.708009 -0.266217 -5.332147 0.052669 -0.001475 0.046169 0.000000 0.000000 0.000000 -3.828977 14.310648 9.603982 -66.790797 -2.164426 21.719653 -31.972617 -62.709951 0.660068 -1.914340 -10.388526 0.329450 -1.932942 -10.398645 0.000000 0.000000 0.000000 0.000000 0.000000 0.000000 0.000000 -0.252035 -17.932897 7.940898 59.497097 3.595273 15.674765 26.246284 59.426966 0.215480 0.094072 8.448462 0.107032 0.086841 8.451046 0.000000 0.000000 0.000000 0.000000 0.000000 0.000000 0.000000 
-1.772144 16.515202 24.518476 4.070523 2.648591 8.424949 -2.812620 14.211057 -3.488279 -25.120844 -4.552015 -7.790636 -11.429646 -6.373574 -15.373241 0.357208 7.780602 17.868167 0.000000 0.000000 0.000000 11.003912 -9.355798 7.008497 1.155821 5.166641 -10.681559 -2.517266 -18.816594 46.276960 14.061516 -28.302871 19.471190 0.000000 0.000000 0.000000 -4.369743 -0.446071 2.540081 4.849616 -1.587416 12.348213 -1.189289 -0.183302 -15.714832 2.771147 -0.278951 -5.373227 0.021740 -0.003178 0.009496 0.000000 0.000000 0.000000 -3.674637 14.128836 9.585315 -66.864227 -2.244846 21.849093 -31.465230 -63.380101 0.661207 -1.812988 -10.594781 0.329925 -1.830739 -10.605019 0.000000 0.000000 0.000000 0.000000 0.000000 0.000000 0.000000 -0.343731 -17.775609 7.931347 59.747374 3.613335 15.861690 26.015351 60.108817 0.221858 0.081010 8.609584 0.110182 0.073509 8.612229 0.000000 0.000000 0.000000 0.000000 0.000000 0.000000 0.000000 
-1.776979 16.547027 24.702864 4.324036 2.509968 8.460075 -2.629395 14.419987 -3.688760 -25.780108 -4.576261 -7.596642 -10.775510 -5.815389 -13.616723 0.141233 6.395151 15.091831 0.000000 0.000000 0.000000 11.070858 -9.506396 7.351056 0.770242 5.000612 -10.650454 -2.621260 -18.600013 45.759317 14.049303 -29.711918 21.357248 0.000000 0.000000 0.000000 -4.417730 -0.456050 2.429213 4.499467 -1.609128 12.433499 -1.066886 -0.228941 -15.539573 2.830629 -0.290802 -5.414466 -0.008424 -0.004885 -0.023488 0.000000 0.000000 0.000000 -3.533816 13.962800 9.569286 -66.932245 -2.317575 21.955332 -30.996620 -63.977498 0.661690 -1.717644 -10.779059 0.330075 -1.734522 -10.789387 0.000000 0.000000 0.000000 0.000000 0.000000 0.000000 0.000000 -0.430975 -17.631312 7.922793 59.975244 3.629315 16.026926 25.798148 60.721680 0.227612 0.067726 8.754806 0.113022 0.059969 8.757504 0.000000 0.000000 0.000000 0.000000 0.000000 0.000000 0.000000 
-1.779047 16.578708 24.882122 4.549842 2.368108 8.499285 -2.497597 14.623046 -3.885875 -26.354021 -4.609412 -7.459595 -10.144094 -5.244523 -11.861629 -0.027428 5.119127 12.515575 0.000000 0.000000 0.000000 11.164814 -9.650911 7.692818 0.377088 4.832411 -10.629543 -2.721206 -18.378980 45.231696 13.955598 -31.028312 23.145779 0.000000 0.000000 0.000000 -4.469119 -0.469805 2.325408 4.200606 -1.630478 12.501280 -0.958417 -0.270833 -15.382453 2.886721 -0.301823 -5.456492 -0.038127 -0.006622 -0.052956 0.000000 0.000000 0.000000 -3.407353 13.813780 9.555866 -66.994917 -2.381953 22.040096 -30.574198 -64.499838 0.661655 -1.630311 -10.940422 0.329971 -1.646332 -10.950814 0.000000 0.000000 0.000000 0.000000 0.000000 0.000000 0.000000 -0.513258 -17.500862 7.915815 60.179368 3.643344 16.169659 25.599028 61.261762 0.232684 0.054733 8.883007 0.115524 0.046738 8.885751 0.000000 0.000000 0.000000 0.000000 0.000000 0.000000 0.000000 
-1.778803 16.609912 25.055746 4.748205 2.220685 8.542653 -2.412806 14.815358 -4.077456 -26.843430 -4.650307 -7.373212 -9.536531 -4.669340 -10.128308 -0.156108 3.956342 10.144327 0.000000 0.000000 0.000000 11.282054 -9.786820 8.031521 -0.019277 4.666303 -10.617214 -2.813599 -18.154734 44.701274 13.786668 -32.242508 24.835555 0.000000 0.000000 0.000000 -4.524054 -0.486561 2.228136 3.951834 -1.651141 12.552609 -0.863383 -0.308496 -15.243622 2.939767 -0.312085 -5.499719 -0.067609 -0.008403 -0.079233 0.000000 0.000000 0.000000 -3.295245 13.682072 9.544886 -67.052534 -2.437807 22.105919 -30.201478 -64.949030 0.661244 -1.552202 -11.079272 0.329686 -1.567411 -11.089705 0.000000 0.000000 0.000000 0.000000 0.000000 0.000000 0.000000 -0.590410 -17.384115 7.910843 60.359840 3.655642 16.290392 25.420554 61.729616 0.237063 0.042436 8.994139 0.117683 0.034224 8.996920 0.000000 0.000000 0.000000 0.000000 0.000000 0.000000 0.000000 
-1.776638 16.640317 25.223807 4.919915 2.065590 8.590043 -2.368547 14.991111 -4.263876 -27.251957 -4.695422 -7.327337 -8.953981 -4.096577 -8.433562 -0.251503 2.905291 7.970477 0.000000 0.000000 0.000000 11.420229 -9.910669 8.366057 -0.416723 4.504989 -10.610826 -2.895748 -17.928509 44.172816 13.550641 -33.350783 26.430185 0.000000 0.000000 0.000000 -4.585573 -0.505717 2.138275 3.755698 -1.670847 12.587206 -0.782110 -0.341266 -15.124919 2.989964 -0.321591 -5.544756 -0.097081 -0.010248 -0.102386 0.000000 0.000000 0.000000 -3.198714 13.569356 9.536441 -67.105027 -2.484183 22.154091 -29.886627 -65.320673 0.660593 -1.485503 -11.194066 0.329291 -1.499983 -11.204522 0.000000 0.000000 0.000000 0.000000 0.000000 0.000000 0.000000 -0.661685 -17.282329 7.908489 60.514605 3.666201 16.387788 25.267449 62.119383 0.240676 0.031378 9.086626 0.119464 0.022976 9.089437 0.000000 0.000000 0.000000 0.000000 0.000000 0.000000 0.000000 
-1.772721 16.670093 25.386986 5.070222 1.902944 8.641202 -2.365393 15.158800 -4.438063 -27.587469 -4.755049 -7.330498 -8.392463 -3.523161 -6.758962 -0.320960 1.951719 5.969088 0.000000 0.000000 0.000000 11.568864 -10.029854 8.697216 -0.807857 4.355482 -10.612501 -2.970362 -17.695914 43.652123 13.254506 -34.362413 27.946834 0.000000 0.000000 0.000000 -4.638062 -0.526758 2.046123 3.574374 -1.689772 12.616753 -0.701965 -0.371833 -15.002646 3.044813 -0.332020 -5.598509 -0.131311 -0.012446 -0.126957 0.000000 0.000000 0.000000 -3.099133 13.455509 9.527561 -67.161682 -2.530298 22.196809 -29.564528 -65.694124 0.659659 -1.416590 -11.309268 0.328752 -1.430284 -11.319736 0.000000 0.000000 0.000000 0.000000 0.000000 0.000000 0.000000 -0.740962 -17.173098 7.908093 60.675415 3.678265 16.483585 25.108488 62.513111 0.244299 0.019432 9.179927 0.121248 0.010832 9.182767 0.000000 0.000000 0.000000 0.000000 0.000000 0.000000 0.000000 
-1.767455 16.699126 25.545464 5.200211 1.731631 8.696054 -2.398772 15.314101 -4.600271 -27.853466 -4.827163 -7.375629 -7.850668 -2.953539 -5.114268 -0.369071 1.092164 4.131416 0.000000 0.000000 0.000000 11.726660 -10.141418 9.024404 -1.191639 4.219510 -10.619896 -3.035517 -17.457008 43.141320 12.905543 -35.277789 29.391401 0.000000 0.000000 0.000000 -4.683563 -0.549298 1.952124 3.408305 -1.707664 12.640977 -0.622547 -0.399913 -14.876452 3.105081 -0.343494 -5.662022 -0.170854 -0.015038 -0.153268 0.000000 0.000000 0.000000 -2.996036 13.340314 9.518207 -67.223014 -2.576191 22.233643 -29.234731 -66.069798 0.658422 -1.345320 -11.424955 0.328057 -1.358167 -11.435424 0.000000 0.000000 0.000000 0.000000 0.000000 0.000000 0.000000 -0.829011 -17.055610 7.909829 60.842935 3.692016 16.577579 24.943269 62.911329 0.247929 0.006532 9.274125 0.123035 -0.002278 9.276992 0.000000 0.000000 0.000000 0.000000 0.000000 0.000000 0.000000 
